<?xml version="1.0" encoding="UTF-8" standalone="no"?>
<!-- Created with Inkscape (http://www.inkscape.org/) -->

<svg
   width="7.1145349in"
   height="2.1656368in"
   viewBox="0 0 682.99535 207.90113"
   version="1.1"
   id="svg5"
   xml:space="preserve"
   inkscape:version="1.2.2 (b0a8486, 2022-12-01)"
   sodipodi:docname="dibujo.svg"
   xmlns:inkscape="http://www.inkscape.org/namespaces/inkscape"
   xmlns:sodipodi="http://sodipodi.sourceforge.net/DTD/sodipodi-0.dtd"
   xmlns="http://www.w3.org/2000/svg"
   xmlns:svg="http://www.w3.org/2000/svg"><sodipodi:namedview
     id="namedview7"
     pagecolor="#ffffff"
     bordercolor="#000000"
     borderopacity="0.25"
     inkscape:showpageshadow="2"
     inkscape:pageopacity="0.0"
     inkscape:pagecheckerboard="0"
     inkscape:deskcolor="#d1d1d1"
     inkscape:document-units="in"
     showgrid="false"
     inkscape:zoom="0.70710678"
     inkscape:cx="511.2382"
     inkscape:cy="364.15999"
     inkscape:window-width="1390"
     inkscape:window-height="1027"
     inkscape:window-x="269"
     inkscape:window-y="25"
     inkscape:window-maximized="0"
     inkscape:current-layer="layer1" /><defs
     id="defs2"><clipPath
       clipPathUnits="userSpaceOnUse"
       id="clipPath1927"><path
         style="fill:#000000;stroke-width:0.0968256"
         d="m 931.43757,705.33494 c -3.22148,-0.38741 -5.38313,-1.44406 -6.23893,-3.04971 -0.21229,-0.3983 -0.33351,-0.78064 -0.36797,-1.16067 l -0.0514,-0.5667 -0.59229,-0.0512 c -0.32575,-0.0281 -1.18049,-0.0761 -1.89942,-0.10656 -3.39958,-0.14412 -7.2757,-0.8021 -9.11971,-1.54809 -1.68707,-0.68249 -2.44523,-1.71153 -2.56342,-3.47932 -0.0602,-0.90098 0.19439,-2.33752 0.60661,-3.42227 0.32351,-0.85128 0.37648,-1.08781 0.24362,-1.08781 -0.22662,0 -0.86962,-0.7011 -1.08858,-1.18693 -0.20173,-0.44762 -0.22769,-0.64466 -0.21996,-1.66943 0.0101,-1.3467 0.22362,-2.28954 0.76605,-3.38328 1.31099,-2.6435 4.65336,-5.51716 10.93967,-9.40557 2.39447,-1.48111 3.81221,-2.15592 5.97203,-2.84257 3.5827,-1.13902 4.4032,-1.51157 5.1493,-2.33808 0.4169,-0.46172 0.4376,-0.4966 0.9292,-1.56005 0.4404,-0.9527 1.1162,-1.64199 2.0717,-2.11301 0.7592,-0.37425 1.365,-0.54746 3.8873,-1.11145 1.5313,-0.34239 2.0717,-0.59571 2.7441,-1.28626 1.3033,-1.33839 2.3082,-4.19446 3.1355,-8.91101 l 0.3173,-1.80909 -0.01,-3.43731 c -0.01,-4.32917 -0.2101,-7.56612 -1.1114,-17.96114 -0.4787,-5.52135 -1.0855,-11.78655 -1.8379,-18.97781 -0.3176,-3.03548 -0.5774,-5.66067 -0.5773,-5.83374 0,-0.17308 -0.043,-0.31468 -0.097,-0.31468 -0.053,0 -0.097,0.0189 -0.097,0.0421 0,0.0232 -0.2388,0.86519 -0.5308,1.87117 -1.2365,4.26091 -2.1542,8.86755 -2.6568,13.33674 -0.5618,4.99626 -0.5073,7.91674 0.2873,15.39527 0.7802,7.34283 0.7765,10.3116 -0.016,12.34525 -0.2112,0.54215 -0.7275,1.35195 -2.0372,3.19525 -3.6372,5.1189 -5.6817,7.71768 -7.5858,9.64227 -0.98841,0.99905 -1.27683,1.23071 -1.93149,1.5514 -0.74267,0.36379 -0.80362,0.37681 -1.74286,0.37209 -0.6399,-0.003 -1.4376,-0.0945 -2.32884,-0.26638 -2.09595,-0.4043 -3.44022,-0.55176 -5.02877,-0.55163 -2.23491,0 -4.01283,0.24041 -10.0276,1.35492 -3.93026,0.72826 -6.99321,1.06674 -9.62549,1.06369 -3.46234,-0.004 -4.85964,-0.4344 -7.80311,-2.40343 -0.9852,-0.65904 -2.16667,-1.38709 -2.62549,-1.61788 -0.99736,-0.5017 -1.38288,-0.8643 -1.74409,-1.64042 -0.5742,-1.23378 -0.56754,-3.14482 0.019,-5.46288 0.15614,-0.61705 0.35158,-1.70382 0.4343,-2.41504 0.25354,-2.17987 0.82889,-4.10984 1.6127,-5.40971 0.72226,-1.1978 2.6994,-2.22237 7.67736,-3.97845 2.69864,-0.95202 3.6755,-1.33738 4.59825,-1.81396 0.85877,-0.44353 1.09848,-0.64625 2.15395,-1.82155 0.64335,-0.71637 1.78646,-1.47507 4.47956,-2.9731 3.69557,-2.05566 5.88273,-3.45143 6.93511,-4.42575 2.10521,-1.94905 3.3197,-5.91909 3.76843,-12.31853 0.16612,-2.36903 0.23445,-12.39245 0.10032,-14.71749 -0.2737,-4.74496 -0.85136,-9.10687 -2.90437,-21.93099 -0.64954,-4.05737 -0.87964,-6.08262 -0.87964,-7.74227 0,-0.82205 -0.0669,-2.00885 -0.14866,-2.63731 -0.5871,-4.51244 -2.47308,-10.43052 -4.94626,-15.52098 -2.15316,-4.43178 -4.86149,-8.04111 -9.51883,-12.68552 -4.60154,-4.58875 -9.84721,-8.7587 -16.07995,-12.78246 -3.44639,-2.22493 -4.15675,-2.63883 -15.78256,-9.19578 -4.18045,-2.35776 -9.71403,-5.49502 -12.29685,-6.97169 -26.56285,-15.1867 -41.712,-25.14167 -47.54135,-31.24086 -3.70013,-3.87142 -7.57801,-10.05306 -12.56525,-20.02995 -2.27165,-4.54443 -3.09896,-6.27954 -6.55475,-13.74737 -4.48819,-9.69878 -5.89936,-12.6542 -7.56491,-15.84324 -1.31605,-2.51982 -1.9852,-3.67847 -3.09643,-5.36155 -3.22899,-4.89066 -6.67321,-7.49977 -11.2142,-8.49513 -0.86856,-0.19038 -1.2608,-0.21467 -3.4958,-0.21649 -2.67599,-0.002 -3.36792,0.07 -6.58414,0.68727 -6.24101,1.1977 -12.29181,2.93608 -21.01114,6.03645 -5.54931,1.97319 -8.79854,3.00539 -11.58667,3.6808 -2.59658,0.62902 -5.00685,0.9005 -6.13241,0.69073 -1.19899,-0.22347 -2.29641,-0.96637 -3.1967,-2.16402 -1.13746,-1.51317 -1.88804,-3.18053 -3.25539,-7.23169 -1.04696,-3.10189 -1.56407,-4.30521 -2.01218,-4.68226 -0.59533,-0.50093 -7.27085,-1.93619 -13.12782,-2.82253 -8.9406,-1.35297 -16.65134,-1.54726 -22.85084,-0.57575 -5.34895,0.83821 -16.54625,4.15986 -51.36595,15.23758 -35.21122,11.20227 -46.03285,14.38586 -51.67629,15.20253 -3.52032,0.50941 -11.16824,1.34467 -29.26987,3.19667 -13.88259,1.42036 -19.44441,2.10947 -20.02458,2.48109 -0.78575,0.5033 -3.13155,5.46555 -5.37156,11.36289 -5.88747,15.50014 -9.95214,32.02514 -11.00314,44.73341 -0.46817,5.66097 -0.61406,10.02111 -0.61229,18.30003 0.002,8.01059 0.13398,13.37262 0.56011,22.7056 0.62692,13.73034 2.03381,31.34039 3.00137,37.56831 0.53341,3.43334 1.173,5.40471 4.83344,14.89798 5.20634,13.50247 5.85,16.36779 4.18254,18.61863 -1.14499,1.54556 -2.8364,2.63947 -6.98579,4.51799 -6.34764,2.87374 -7.46361,3.73521 -8.308,6.41341 -1.12471,3.56736 -1.58831,9.45599 -1.48987,18.92432 0.0632,6.07502 0.15943,8.23949 0.52536,11.81272 0.35779,3.49372 0.37656,6.92024 0.0473,8.6438 -0.65386,3.4232 -2.55533,6.92131 -5.05555,9.30059 -1.08019,1.02794 -1.79545,1.4 -4.12466,2.14556 -2.80919,0.8992 -4.31594,1.6088 -7.15657,3.3704 -1.51319,0.93838 -2.73197,1.52839 -3.7762,1.82802 -0.62779,0.18013 -1.01317,0.22253 -2.03334,0.22371 -2.12587,0.002 -2.97429,-0.38373 -6.25155,-2.84556 -1.40091,-1.05234 -2.50922,-1.6659 -3.42714,-1.89723 -0.82923,-0.20899 -2.76399,-0.18636 -4.46331,0.0522 -1.63408,0.22942 -2.99454,0.50025 -7.23524,1.44039 -6.78506,1.50419 -8.89689,1.6142 -11.08082,0.57721 -1.18348,-0.56195 -2.07521,-1.7703 -2.2144,-3.00069 -0.0606,-0.53528 -0.0797,-0.56566 -0.5702,-0.90346 -1.29853,-0.89433 -2.45373,-2.31783 -2.67182,-3.29236 -0.17117,-0.76486 -0.0536,-1.27673 0.50539,-2.19979 0.87568,-1.4461 3.64508,-5.24781 7.02279,-9.64059 0.86939,-1.13064 1.57968,-2.08921 1.57845,-2.13016 -10e-4,-0.0409 -0.68612,-0.40122 -1.52195,-0.80063 -1.76562,-0.84372 -3.39587,-1.75426 -4.09378,-2.28648 -0.92765,-0.70743 -1.22067,-1.76932 -1.13013,-4.0954 0.0797,-2.04829 0.43581,-3.48715 1.28427,-5.18944 0.91894,-1.84368 1.93484,-2.84177 4.83448,-4.74968 3.39063,-2.23099 7.06578,-4.25244 15.39526,-8.46787 2.44968,-1.23976 4.57967,-2.36748 4.73331,-2.50605 1.42315,-1.28365 3.77969,-7.15284 5.38838,-13.42023 1.39838,-5.44804 1.97966,-9.93057 1.74981,-13.49359 -0.33939,-5.26101 -2.32866,-21.41882 -4.90105,-39.80888 -0.18251,-1.30472 -0.68459,-4.89937 -1.11574,-7.98811 -0.43114,-3.08873 -1.28152,-9.1016 -1.8897,-13.36192 -0.97547,-6.83322 -1.43296,-10.00434 -3.04516,-21.10797 -0.34007,-2.3421 -0.68061,-4.65856 -2.17785,-14.81432 -0.23553,-1.59762 -0.62707,-4.23369 -0.87008,-5.85794 -0.24301,-1.62425 -0.68183,-4.56533 -0.97513,-6.53573 -2.16948,-14.57416 -3.26241,-21.55588 -4.25166,-27.15957 -1.03281,-5.85044 -1.40442,-8.02862 -1.78404,-10.45716 -0.5356,-3.42632 -0.57817,-3.73699 -0.72968,-5.3254 -0.15165,-1.58977 -0.35205,-2.21041 -1.27288,-3.94212 -2.94042,-5.52973 -9.76372,-14.24144 -18.97128,-24.22177 -4.48341,-4.85971 -7.03498,-8.05858 -10.1744,-12.75556 -5.67194,-8.48596 -10.156,-18.30817 -12.32779,-27.00368 -0.79758,-3.1934 -1.10963,-5.1758 -1.27202,-8.08097 -0.29377,-5.25552 -1.25452,-10.36519 -2.89051,-15.37297 -0.93549,-2.86356 -2.4723,-6.26134 -3.55916,-7.86913 -0.69533,-1.02858 -0.94987,-1.57046 -1.32586,-2.82251 -1.57498,-5.24466 -2.87457,-19.03089 -3.46708,-36.77914 l -0.11798,-3.53414 -0.35955,-0.43571 c -2.84715,-3.4502 -10.34967,-22.36817 -17.97085,-45.31436 -4.02616,-12.12216 -6.96824,-21.98697 -8.35996,-28.031 -0.60128,-2.61126 -0.99097,-3.79157 -1.79019,-5.42223 -1.88467,-3.84531 -5.13746,-7.51822 -9.68792,-10.93912 -4.20071,-3.15799 -10.141,-6.31353 -15.74175,-8.3622 -4.30461,-1.57454 -7.44585,-2.24617 -9.86189,-2.10855 -2.96461,0.16887 -5.07494,0.65561 -11.83365,2.72935 -8.75288,2.68562 -10.9565,3.08336 -18.49056,3.33743 -5.90435,0.19912 -11.73661,-0.16432 -18.28261,-1.13928 -1.88255,-0.28038 -6.12876,-0.21604 -11.03811,0.16725 -0.66568,0.052 -2.08175,0.1607 -3.14683,0.24164 -1.06508,0.0809 -2.45937,0.19098 -3.09842,0.24455 -6.31842,0.52969 -12.04139,0.50989 -13.59986,-0.0471 -1.83153,-0.65451 -2.87468,-2.31458 -3.19642,-5.08676 -0.27956,-2.40868 -0.39448,-2.79356 -0.90607,-3.03445 -0.5016,-0.23619 -3.80575,-1.37688 -5.80319,-2.00344 -2.46923,-0.77455 -4.00636,-1.19665 -5.60864,-1.54014 -0.72889,-0.15627 -1.44782,-0.36075 -1.59762,-0.45441 -0.92732,-0.57975 -1.97823,-1.77644 -2.86739,-3.26517 -1.07485,-1.79961 -3.43802,-6.42732 -4.37164,-8.56081 l -0.68925,-1.57506 -0.96492,-0.8317 c -2.8097,-2.42183 -5.71022,-5.3186 -6.8715,-6.86264 -0.97818,-1.30058 -1.10794,-1.9223 -0.67214,-3.22052 1.09332,-3.25695 5.04191,-6.90175 9.29475,-8.57966 1.18755,-0.46853 2.49913,-0.80658 3.98409,-1.02686 1.88334,-0.27938 9.19718,-2.47211 17.74834,-5.32104 12.07201,-4.02195 13.26215,-4.52791 17.28337,-7.34757 2.30945,-1.61938 5.8545,-4.46122 8.66588,-6.94689 2.46416,-2.17867 5.55532,-5.69605 7.31283,-8.32113 1.47511,-2.2033 1.90428,-3.4995 2.56305,-7.74117 0.63515,-4.08959 1.01253,-5.67076 1.73231,-7.25821 0.62422,-1.37668 1.6966,-2.68229 2.84381,-3.46229 1.19727,-0.81404 17.54411,-8.33879 27.63166,-12.71937 1.01894,-0.44248 2.63109,-1.17933 3.58255,-1.63744 0.95144,-0.45811 3.75598,-1.80798 6.23229,-2.99972 l 4.50239,-2.16679 0.0685,-1.35205 c 0.11353,-2.23997 0.57834,-5.010584 1.2058,-7.187524 0.22579,-0.78335 0.50063,-1.52628 2.86575,-7.74605 2.31692,-6.09301 3.79785,-10.80981 4.67682,-14.89586 1.39117,-6.46703 1.34686,-8.1351 -0.6744,-25.383576 -1.01431,-8.65569 -1.18568,-13.38305 -0.58265,-16.07304 0.3095,-1.38062 1.00901,-2.321 1.84286,-2.47744 0.44807,-0.084 1.53331,0.19651 2.17525,0.56237 2.49609,1.42255 4.44049,5.73143 5.5614,12.3243 0.18469,1.0863 0.36455,2.34902 0.39968,2.80605 0.0351,0.45703 0.0925,0.84865 0.12747,0.87027 0.035,0.0216 0.14117,-0.25218 0.23599,-0.60843 0.0948,-0.35625 0.36931,-1.14881 0.60997,-1.76123 1.19221,-3.03385 2.38163,-4.37628 3.58796,-4.04954 0.82095,0.22235 1.60833,1.34554 3.11034,4.43684 3.26347,6.716616 9.56851,23.738946 12.69585,34.276246 1.45967,4.91821 2.15832,6.84172 3.59169,9.88847 3.30312,7.02109 7.71282,13.678874 16.50563,24.920324 1.59868,2.04389 2.46762,3.44979 3.14183,5.08334 0.71446,1.73105 1.1422,4.11853 1.01483,5.6643 -0.12311,1.49413 -0.58643,3.16338 -1.1657,4.19981 -0.13183,0.23586 -0.22816,0.4362 -0.21408,0.4452 0.0141,0.009 0.78813,0.45305 1.72007,0.98679 7.70091,4.41047 16.15867,10.95322 25.94676,20.07189 2.26504,2.11014 9.10446,8.92565 11.76047,11.71939 11.18494,11.76488 21.15062,23.50736 35.82805,42.21594 7.41955,9.45732 7.25566,9.26477 8.32643,9.78222 1.36356,0.65893 3.61333,1.14483 9.83765,2.12469 11.39865,1.79442 17.09418,2.81649 23.76512,4.26469 21.62713,4.69504 39.54334,10.71429 73.78107,24.78798 15.33995,6.30561 20.47964,8.29922 26.53281,10.29169 4.06273,1.33729 7.13503,2.16763 10.47765,2.83174 2.76405,0.54916 3.42234,0.617 16.87296,1.73866 23.8287,1.9871 54.43859,5.41686 73.44218,8.22902 1.22484,0.18125 2.70627,0.39943 3.29207,0.48485 13.72247,2.001 28.75972,4.76849 40.03737,7.3686 4.94078,1.13911 5.40445,1.25854 17.38018,4.47631 32.05614,8.61322 47.14978,12.28192 57.03025,13.86194 4.3102,0.68925 8.5627,0.95236 10.26351,0.63501 2.57326,-0.48013 5.74258,-2.01957 9.80311,-4.76165 2.23877,-1.51185 3.93077,-2.76984 8.29415,-6.16662 7.17976,-5.58926 9.45111,-7.12735 11.62819,-7.8742 0.6772,-0.23232 0.92678,-0.26643 1.98492,-0.27136 1.00785,-0.005 1.33123,0.0322 1.9331,0.22044 2.54227,0.79515 4.66992,2.74138 6.14105,5.61742 2.55143,4.98802 2.49511,11.38419 -0.15135,17.18613 -1.91979,4.20884 -4.85888,8.16173 -10.47496,14.08813 -3.04641,3.21474 -3.79012,4.0386 -4.33024,4.7969 -0.42522,0.59698 -0.47634,0.72335 -0.47634,1.17728 0,1.14148 0.96484,3.96295 6.32363,18.49214 4.20224,11.39345 6.52098,17.9405 8.3313,23.52381 3.26058,10.05608 4.05658,14.03669 4.05637,20.28495 0,4.35267 -0.19776,6.22011 -1.76742,16.70241 -1.28649,8.59126 -1.82738,14.5921 -1.9942,22.12464 -0.14483,6.53979 0.55881,12.25048 2.43835,19.78931 3.9079,15.67466 13.12512,35.24703 26.08751,55.39574 3.9301,6.10892 6.89596,10.09392 11.56175,15.53464 10.75975,12.54674 26.57565,27.59236 37.52795,35.70022 3.0335,2.24561 4.6214,3.28433 6.8239,4.46385 1.8854,1.00966 2.3734,1.35857 3.5416,2.53207 1.1512,1.15638 2.0199,2.3889 2.8408,4.03007 2.2064,4.41148 3.4006,10.20089 4.1738,20.23452 0.3457,4.48524 0.6629,7.04677 1.0793,8.7143 0.3991,1.5981 0.092,4.36264 -0.9451,8.52065 -0.9251,3.70751 -2.3359,8.11767 -5.1416,16.07304 -3.1397,8.90216 -4.3336,12.61392 -4.6407,14.42701 -0.1895,1.11912 -0.1621,5.20723 0.047,7.06827 0.8225,7.305 2.7729,16.28737 6.0758,27.98175 0.6993,2.47597 0.7654,2.7857 0.7652,3.58255 -10e-4,2.24583 -0.8546,5.25457 -3.6272,12.7818 -2.4338,6.60738 -2.8937,8.05353 -3.6427,11.45366 -0.6629,3.00948 -1.1706,5.00575 -1.5939,6.26742 -1.1847,3.53116 -3.5034,6.79967 -5.5615,7.8395 -0.5875,0.29682 -1.8241,0.67677 -2.7125,0.83343 -1.2044,0.21237 -3.8728,0.1542 -6.7778,-0.14775 -3.5352,-0.36743 -3.8929,-0.33362 -8.6175,0.81448 -3.4214,0.83143 -4.8415,1.11998 -6.4451,1.30961 -1.876,0.22182 -3.4168,0.25215 -4.7383,0.0932 z"
         id="path1929" /></clipPath><clipPath
       clipPathUnits="userSpaceOnUse"
       id="clipPath1931"><path
         style="fill:#000000;stroke-width:0.0968256"
         d="m 931.43757,705.33494 c -3.22148,-0.38741 -5.38313,-1.44406 -6.23893,-3.04971 -0.21229,-0.3983 -0.33351,-0.78064 -0.36797,-1.16067 l -0.0514,-0.5667 -0.59229,-0.0512 c -0.32575,-0.0281 -1.18049,-0.0761 -1.89942,-0.10656 -3.39958,-0.14412 -7.2757,-0.8021 -9.11971,-1.54809 -1.68707,-0.68249 -2.44523,-1.71153 -2.56342,-3.47932 -0.0602,-0.90098 0.19439,-2.33752 0.60661,-3.42227 0.32351,-0.85128 0.37648,-1.08781 0.24362,-1.08781 -0.22662,0 -0.86962,-0.7011 -1.08858,-1.18693 -0.20173,-0.44762 -0.22769,-0.64466 -0.21996,-1.66943 0.0101,-1.3467 0.22362,-2.28954 0.76605,-3.38328 1.31099,-2.6435 4.65336,-5.51716 10.93967,-9.40557 2.39447,-1.48111 3.81221,-2.15592 5.97203,-2.84257 3.5827,-1.13902 4.4032,-1.51157 5.1493,-2.33808 0.4169,-0.46172 0.4376,-0.4966 0.9292,-1.56005 0.4404,-0.9527 1.1162,-1.64199 2.0717,-2.11301 0.7592,-0.37425 1.365,-0.54746 3.8873,-1.11145 1.5313,-0.34239 2.0717,-0.59571 2.7441,-1.28626 1.3033,-1.33839 2.3082,-4.19446 3.1355,-8.91101 l 0.3173,-1.80909 -0.01,-3.43731 c -0.01,-4.32917 -0.2101,-7.56612 -1.1114,-17.96114 -0.4787,-5.52135 -1.0855,-11.78655 -1.8379,-18.97781 -0.3176,-3.03548 -0.5774,-5.66067 -0.5773,-5.83374 0,-0.17308 -0.043,-0.31468 -0.097,-0.31468 -0.053,0 -0.097,0.0189 -0.097,0.0421 0,0.0232 -0.2388,0.86519 -0.5308,1.87117 -1.2365,4.26091 -2.1542,8.86755 -2.6568,13.33674 -0.5618,4.99626 -0.5073,7.91674 0.2873,15.39527 0.7802,7.34283 0.7765,10.3116 -0.016,12.34525 -0.2112,0.54215 -0.7275,1.35195 -2.0372,3.19525 -3.6372,5.1189 -5.6817,7.71768 -7.5858,9.64227 -0.98841,0.99905 -1.27683,1.23071 -1.93149,1.5514 -0.74267,0.36379 -0.80362,0.37681 -1.74286,0.37209 -0.6399,-0.003 -1.4376,-0.0945 -2.32884,-0.26638 -2.09595,-0.4043 -3.44022,-0.55176 -5.02877,-0.55163 -2.23491,0 -4.01283,0.24041 -10.0276,1.35492 -3.93026,0.72826 -6.99321,1.06674 -9.62549,1.06369 -3.46234,-0.004 -4.85964,-0.4344 -7.80311,-2.40343 -0.9852,-0.65904 -2.16667,-1.38709 -2.62549,-1.61788 -0.99736,-0.5017 -1.38288,-0.8643 -1.74409,-1.64042 -0.5742,-1.23378 -0.56754,-3.14482 0.019,-5.46288 0.15614,-0.61705 0.35158,-1.70382 0.4343,-2.41504 0.25354,-2.17987 0.82889,-4.10984 1.6127,-5.40971 0.72226,-1.1978 2.6994,-2.22237 7.67736,-3.97845 2.69864,-0.95202 3.6755,-1.33738 4.59825,-1.81396 0.85877,-0.44353 1.09848,-0.64625 2.15395,-1.82155 0.64335,-0.71637 1.78646,-1.47507 4.47956,-2.9731 3.69557,-2.05566 5.88273,-3.45143 6.93511,-4.42575 2.10521,-1.94905 3.3197,-5.91909 3.76843,-12.31853 0.16612,-2.36903 0.23445,-12.39245 0.10032,-14.71749 -0.2737,-4.74496 -0.85136,-9.10687 -2.90437,-21.93099 -0.64954,-4.05737 -0.87964,-6.08262 -0.87964,-7.74227 0,-0.82205 -0.0669,-2.00885 -0.14866,-2.63731 -0.5871,-4.51244 -2.47308,-10.43052 -4.94626,-15.52098 -2.15316,-4.43178 -4.86149,-8.04111 -9.51883,-12.68552 -4.60154,-4.58875 -9.84721,-8.7587 -16.07995,-12.78246 -3.44639,-2.22493 -4.15675,-2.63883 -15.78256,-9.19578 -4.18045,-2.35776 -9.71403,-5.49502 -12.29685,-6.97169 -26.56285,-15.1867 -41.712,-25.14167 -47.54135,-31.24086 -3.70013,-3.87142 -7.57801,-10.05306 -12.56525,-20.02995 -2.27165,-4.54443 -3.09896,-6.27954 -6.55475,-13.74737 -4.48819,-9.69878 -5.89936,-12.6542 -7.56491,-15.84324 -1.31605,-2.51982 -1.9852,-3.67847 -3.09643,-5.36155 -3.22899,-4.89066 -6.67321,-7.49977 -11.2142,-8.49513 -0.86856,-0.19038 -1.2608,-0.21467 -3.4958,-0.21649 -2.67599,-0.002 -3.36792,0.07 -6.58414,0.68727 -6.24101,1.1977 -12.29181,2.93608 -21.01114,6.03645 -5.54931,1.97319 -8.79854,3.00539 -11.58667,3.6808 -2.59658,0.62902 -5.00685,0.9005 -6.13241,0.69073 -1.19899,-0.22347 -2.29641,-0.96637 -3.1967,-2.16402 -1.13746,-1.51317 -1.88804,-3.18053 -3.25539,-7.23169 -1.04696,-3.10189 -1.56407,-4.30521 -2.01218,-4.68226 -0.59533,-0.50093 -7.27085,-1.93619 -13.12782,-2.82253 -8.9406,-1.35297 -16.65134,-1.54726 -22.85084,-0.57575 -5.34895,0.83821 -16.54625,4.15986 -51.36595,15.23758 -35.21122,11.20227 -46.03285,14.38586 -51.67629,15.20253 -3.52032,0.50941 -11.16824,1.34467 -29.26987,3.19667 -13.88259,1.42036 -19.44441,2.10947 -20.02458,2.48109 -0.78575,0.5033 -3.13155,5.46555 -5.37156,11.36289 -5.88747,15.50014 -9.95214,32.02514 -11.00314,44.73341 -0.46817,5.66097 -0.61406,10.02111 -0.61229,18.30003 0.002,8.01059 0.13398,13.37262 0.56011,22.7056 0.62692,13.73034 2.03381,31.34039 3.00137,37.56831 0.53341,3.43334 1.173,5.40471 4.83344,14.89798 5.20634,13.50247 5.85,16.36779 4.18254,18.61863 -1.14499,1.54556 -2.8364,2.63947 -6.98579,4.51799 -6.34764,2.87374 -7.46361,3.73521 -8.308,6.41341 -1.12471,3.56736 -1.58831,9.45599 -1.48987,18.92432 0.0632,6.07502 0.15943,8.23949 0.52536,11.81272 0.35779,3.49372 0.37656,6.92024 0.0473,8.6438 -0.65386,3.4232 -2.55533,6.92131 -5.05555,9.30059 -1.08019,1.02794 -1.79545,1.4 -4.12466,2.14556 -2.80919,0.8992 -4.31594,1.6088 -7.15657,3.3704 -1.51319,0.93838 -2.73197,1.52839 -3.7762,1.82802 -0.62779,0.18013 -1.01317,0.22253 -2.03334,0.22371 -2.12587,0.002 -2.97429,-0.38373 -6.25155,-2.84556 -1.40091,-1.05234 -2.50922,-1.6659 -3.42714,-1.89723 -0.82923,-0.20899 -2.76399,-0.18636 -4.46331,0.0522 -1.63408,0.22942 -2.99454,0.50025 -7.23524,1.44039 -6.78506,1.50419 -8.89689,1.6142 -11.08082,0.57721 -1.18348,-0.56195 -2.07521,-1.7703 -2.2144,-3.00069 -0.0606,-0.53528 -0.0797,-0.56566 -0.5702,-0.90346 -1.29853,-0.89433 -2.45373,-2.31783 -2.67182,-3.29236 -0.17117,-0.76486 -0.0536,-1.27673 0.50539,-2.19979 0.87568,-1.4461 3.64508,-5.24781 7.02279,-9.64059 0.86939,-1.13064 1.57968,-2.08921 1.57845,-2.13016 -10e-4,-0.0409 -0.68612,-0.40122 -1.52195,-0.80063 -1.76562,-0.84372 -3.39587,-1.75426 -4.09378,-2.28648 -0.92765,-0.70743 -1.22067,-1.76932 -1.13013,-4.0954 0.0797,-2.04829 0.43581,-3.48715 1.28427,-5.18944 0.91894,-1.84368 1.93484,-2.84177 4.83448,-4.74968 3.39063,-2.23099 7.06578,-4.25244 15.39526,-8.46787 2.44968,-1.23976 4.57967,-2.36748 4.73331,-2.50605 1.42315,-1.28365 3.77969,-7.15284 5.38838,-13.42023 1.39838,-5.44804 1.97966,-9.93057 1.74981,-13.49359 -0.33939,-5.26101 -2.32866,-21.41882 -4.90105,-39.80888 -0.18251,-1.30472 -0.68459,-4.89937 -1.11574,-7.98811 -0.43114,-3.08873 -1.28152,-9.1016 -1.8897,-13.36192 -0.97547,-6.83322 -1.43296,-10.00434 -3.04516,-21.10797 -0.34007,-2.3421 -0.68061,-4.65856 -2.17785,-14.81432 -0.23553,-1.59762 -0.62707,-4.23369 -0.87008,-5.85794 -0.24301,-1.62425 -0.68183,-4.56533 -0.97513,-6.53573 -2.16948,-14.57416 -3.26241,-21.55588 -4.25166,-27.15957 -1.03281,-5.85044 -1.40442,-8.02862 -1.78404,-10.45716 -0.5356,-3.42632 -0.57817,-3.73699 -0.72968,-5.3254 -0.15165,-1.58977 -0.35205,-2.21041 -1.27288,-3.94212 -2.94042,-5.52973 -9.76372,-14.24144 -18.97128,-24.22177 -4.48341,-4.85971 -7.03498,-8.05858 -10.1744,-12.75556 -5.67194,-8.48596 -10.156,-18.30817 -12.32779,-27.00368 -0.79758,-3.1934 -1.10963,-5.1758 -1.27202,-8.08097 -0.29377,-5.25552 -1.25452,-10.36519 -2.89051,-15.37297 -0.93549,-2.86356 -2.4723,-6.26134 -3.55916,-7.86913 -0.69533,-1.02858 -0.94987,-1.57046 -1.32586,-2.82251 -1.57498,-5.24466 -2.87457,-19.03089 -3.46708,-36.77914 l -0.11798,-3.53414 -0.35955,-0.43571 c -2.84715,-3.4502 -10.34967,-22.36817 -17.97085,-45.31436 -4.02616,-12.12216 -6.96824,-21.98697 -8.35996,-28.031 -0.60128,-2.61126 -0.99097,-3.79157 -1.79019,-5.42223 -1.88467,-3.84531 -5.13746,-7.51822 -9.68792,-10.93912 -4.20071,-3.15799 -10.141,-6.31353 -15.74175,-8.3622 -4.30461,-1.57454 -7.44585,-2.24617 -9.86189,-2.10855 -2.96461,0.16887 -5.07494,0.65561 -11.83365,2.72935 -8.75288,2.68562 -10.9565,3.08336 -18.49056,3.33743 -5.90435,0.19912 -11.73661,-0.16432 -18.28261,-1.13928 -1.88255,-0.28038 -6.12876,-0.21604 -11.03811,0.16725 -0.66568,0.052 -2.08175,0.1607 -3.14683,0.24164 -1.06508,0.0809 -2.45937,0.19098 -3.09842,0.24455 -6.31842,0.52969 -12.04139,0.50989 -13.59986,-0.0471 -1.83153,-0.65451 -2.87468,-2.31458 -3.19642,-5.08676 -0.27956,-2.40868 -0.39448,-2.79356 -0.90607,-3.03445 -0.5016,-0.23619 -3.80575,-1.37688 -5.80319,-2.00344 -2.46923,-0.77455 -4.00636,-1.19665 -5.60864,-1.54014 -0.72889,-0.15627 -1.44782,-0.36075 -1.59762,-0.45441 -0.92732,-0.57975 -1.97823,-1.77644 -2.86739,-3.26517 -1.07485,-1.79961 -3.43802,-6.42732 -4.37164,-8.56081 l -0.68925,-1.57506 -0.96492,-0.8317 c -2.8097,-2.42183 -5.71022,-5.3186 -6.8715,-6.86264 -0.97818,-1.30058 -1.10794,-1.9223 -0.67214,-3.22052 1.09332,-3.25695 5.04191,-6.90175 9.29475,-8.57966 1.18755,-0.46853 2.49913,-0.80658 3.98409,-1.02686 1.88334,-0.27938 9.19718,-2.47211 17.74834,-5.32104 12.07201,-4.02195 13.26215,-4.52791 17.28337,-7.34757 2.30945,-1.61938 5.8545,-4.46122 8.66588,-6.94689 2.46416,-2.17867 5.55532,-5.69605 7.31283,-8.32113 1.47511,-2.2033 1.90428,-3.4995 2.56305,-7.74117 0.63515,-4.08959 1.01253,-5.67076 1.73231,-7.25821 0.62422,-1.37668 1.6966,-2.68229 2.84381,-3.46229 1.19727,-0.81404 17.54411,-8.33879 27.63166,-12.71937 1.01894,-0.44248 2.63109,-1.17933 3.58255,-1.63744 0.95144,-0.45811 3.75598,-1.80798 6.23229,-2.99972 l 4.50239,-2.16679 0.0685,-1.35205 c 0.11353,-2.23997 0.57834,-5.010584 1.2058,-7.187524 0.22579,-0.78335 0.50063,-1.52628 2.86575,-7.74605 2.31692,-6.09301 3.79785,-10.80981 4.67682,-14.89586 1.39117,-6.46703 1.34686,-8.1351 -0.6744,-25.383576 -1.01431,-8.65569 -1.18568,-13.38305 -0.58265,-16.07304 0.3095,-1.38062 1.00901,-2.321 1.84286,-2.47744 0.44807,-0.084 1.53331,0.19651 2.17525,0.56237 2.49609,1.42255 4.44049,5.73143 5.5614,12.3243 0.18469,1.0863 0.36455,2.34902 0.39968,2.80605 0.0351,0.45703 0.0925,0.84865 0.12747,0.87027 0.035,0.0216 0.14117,-0.25218 0.23599,-0.60843 0.0948,-0.35625 0.36931,-1.14881 0.60997,-1.76123 1.19221,-3.03385 2.38163,-4.37628 3.58796,-4.04954 0.82095,0.22235 1.60833,1.34554 3.11034,4.43684 3.26347,6.716616 9.56851,23.738946 12.69585,34.276246 1.45967,4.91821 2.15832,6.84172 3.59169,9.88847 3.30312,7.02109 7.71282,13.678874 16.50563,24.920324 1.59868,2.04389 2.46762,3.44979 3.14183,5.08334 0.71446,1.73105 1.1422,4.11853 1.01483,5.6643 -0.12311,1.49413 -0.58643,3.16338 -1.1657,4.19981 -0.13183,0.23586 -0.22816,0.4362 -0.21408,0.4452 0.0141,0.009 0.78813,0.45305 1.72007,0.98679 7.70091,4.41047 16.15867,10.95322 25.94676,20.07189 2.26504,2.11014 9.10446,8.92565 11.76047,11.71939 11.18494,11.76488 21.15062,23.50736 35.82805,42.21594 7.41955,9.45732 7.25566,9.26477 8.32643,9.78222 1.36356,0.65893 3.61333,1.14483 9.83765,2.12469 11.39865,1.79442 17.09418,2.81649 23.76512,4.26469 21.62713,4.69504 39.54334,10.71429 73.78107,24.78798 15.33995,6.30561 20.47964,8.29922 26.53281,10.29169 4.06273,1.33729 7.13503,2.16763 10.47765,2.83174 2.76405,0.54916 3.42234,0.617 16.87296,1.73866 23.8287,1.9871 54.43859,5.41686 73.44218,8.22902 1.22484,0.18125 2.70627,0.39943 3.29207,0.48485 13.72247,2.001 28.75972,4.76849 40.03737,7.3686 4.94078,1.13911 5.40445,1.25854 17.38018,4.47631 32.05614,8.61322 47.14978,12.28192 57.03025,13.86194 4.3102,0.68925 8.5627,0.95236 10.26351,0.63501 2.57326,-0.48013 5.74258,-2.01957 9.80311,-4.76165 2.23877,-1.51185 3.93077,-2.76984 8.29415,-6.16662 7.17976,-5.58926 9.45111,-7.12735 11.62819,-7.8742 0.6772,-0.23232 0.92678,-0.26643 1.98492,-0.27136 1.00785,-0.005 1.33123,0.0322 1.9331,0.22044 2.54227,0.79515 4.66992,2.74138 6.14105,5.61742 2.55143,4.98802 2.49511,11.38419 -0.15135,17.18613 -1.91979,4.20884 -4.85888,8.16173 -10.47496,14.08813 -3.04641,3.21474 -3.79012,4.0386 -4.33024,4.7969 -0.42522,0.59698 -0.47634,0.72335 -0.47634,1.17728 0,1.14148 0.96484,3.96295 6.32363,18.49214 4.20224,11.39345 6.52098,17.9405 8.3313,23.52381 3.26058,10.05608 4.05658,14.03669 4.05637,20.28495 0,4.35267 -0.19776,6.22011 -1.76742,16.70241 -1.28649,8.59126 -1.82738,14.5921 -1.9942,22.12464 -0.14483,6.53979 0.55881,12.25048 2.43835,19.78931 3.9079,15.67466 13.12512,35.24703 26.08751,55.39574 3.9301,6.10892 6.89596,10.09392 11.56175,15.53464 10.75975,12.54674 26.57565,27.59236 37.52795,35.70022 3.0335,2.24561 4.6214,3.28433 6.8239,4.46385 1.8854,1.00966 2.3734,1.35857 3.5416,2.53207 1.1512,1.15638 2.0199,2.3889 2.8408,4.03007 2.2064,4.41148 3.4006,10.20089 4.1738,20.23452 0.3457,4.48524 0.6629,7.04677 1.0793,8.7143 0.3991,1.5981 0.092,4.36264 -0.9451,8.52065 -0.9251,3.70751 -2.3359,8.11767 -5.1416,16.07304 -3.1397,8.90216 -4.3336,12.61392 -4.6407,14.42701 -0.1895,1.11912 -0.1621,5.20723 0.047,7.06827 0.8225,7.305 2.7729,16.28737 6.0758,27.98175 0.6993,2.47597 0.7654,2.7857 0.7652,3.58255 -10e-4,2.24583 -0.8546,5.25457 -3.6272,12.7818 -2.4338,6.60738 -2.8937,8.05353 -3.6427,11.45366 -0.6629,3.00948 -1.1706,5.00575 -1.5939,6.26742 -1.1847,3.53116 -3.5034,6.79967 -5.5615,7.8395 -0.5875,0.29682 -1.8241,0.67677 -2.7125,0.83343 -1.2044,0.21237 -3.8728,0.1542 -6.7778,-0.14775 -3.5352,-0.36743 -3.8929,-0.33362 -8.6175,0.81448 -3.4214,0.83143 -4.8415,1.11998 -6.4451,1.30961 -1.876,0.22182 -3.4168,0.25215 -4.7383,0.0932 z"
         id="path1933" /></clipPath></defs><g
     inkscape:label="Capa 1"
     inkscape:groupmode="layer"
     id="layer1"
     transform="translate(-161.05371,-269.51056)"><g
       id="g1937"
       transform="matrix(0.30803535,0,0,0.30803535,92.275847,260.11286)"
       inkscape:export-filename="logo-criaderopinto-white.svg"
       inkscape:export-xdpi="96.199997"
       inkscape:export-ydpi="96.199997"><path
         style="fill:#ffffff;stroke-width:0.0968256"
         d="m 931.79354,705.8871 c -3.22148,-0.38741 -5.38313,-1.44406 -6.23893,-3.04971 -0.21229,-0.3983 -0.33351,-0.78064 -0.36797,-1.16067 l -0.0514,-0.5667 -0.59229,-0.0512 c -0.32575,-0.0281 -1.18049,-0.0761 -1.89942,-0.10656 -3.39958,-0.14412 -7.2757,-0.8021 -9.11971,-1.54809 -1.68707,-0.68249 -2.44523,-1.71153 -2.56342,-3.47932 -0.0602,-0.90098 0.19439,-2.33752 0.60661,-3.42227 0.32351,-0.85128 0.37648,-1.08781 0.24362,-1.08781 -0.22662,0 -0.86962,-0.7011 -1.08858,-1.18693 -0.20173,-0.44762 -0.22769,-0.64466 -0.21996,-1.66943 0.0101,-1.3467 0.22362,-2.28954 0.76605,-3.38328 1.31099,-2.6435 4.65336,-5.51716 10.93967,-9.40557 2.39447,-1.48111 3.81221,-2.15592 5.97203,-2.84257 3.5827,-1.13902 4.4032,-1.51157 5.1493,-2.33808 0.4169,-0.46172 0.4376,-0.4966 0.9292,-1.56005 0.4404,-0.9527 1.1162,-1.64199 2.0717,-2.11301 0.7592,-0.37425 1.365,-0.54746 3.8873,-1.11145 1.5313,-0.34239 2.0717,-0.59571 2.7441,-1.28626 1.3033,-1.33839 2.3082,-4.19446 3.1355,-8.91101 l 0.3173,-1.80909 -0.01,-3.43731 c -0.01,-4.32917 -0.2101,-7.56612 -1.1114,-17.96114 -0.4787,-5.52135 -1.0855,-11.78655 -1.8379,-18.97781 -0.3176,-3.03548 -0.5774,-5.66067 -0.5773,-5.83374 0,-0.17308 -0.043,-0.31468 -0.097,-0.31468 -0.053,0 -0.097,0.0189 -0.097,0.0421 0,0.0232 -0.2388,0.86519 -0.5308,1.87117 -1.2365,4.26091 -2.1542,8.86755 -2.6568,13.33674 -0.5618,4.99626 -0.5073,7.91674 0.2873,15.39527 0.7802,7.34283 0.7765,10.3116 -0.016,12.34525 -0.2112,0.54215 -0.7275,1.35195 -2.0372,3.19525 -3.6372,5.1189 -5.6817,7.71768 -7.5858,9.64227 -0.98841,0.99905 -1.27683,1.23071 -1.93149,1.5514 -0.74267,0.36379 -0.80362,0.37681 -1.74286,0.37209 -0.6399,-0.003 -1.4376,-0.0945 -2.32884,-0.26638 -2.09595,-0.4043 -3.44022,-0.55176 -5.02877,-0.55163 -2.23491,0 -4.01283,0.24041 -10.0276,1.35492 -3.93026,0.72826 -6.99321,1.06674 -9.62549,1.06369 -3.46234,-0.004 -4.85964,-0.4344 -7.80311,-2.40343 -0.9852,-0.65904 -2.16667,-1.38709 -2.62549,-1.61788 -0.99736,-0.5017 -1.38288,-0.8643 -1.74409,-1.64042 -0.5742,-1.23378 -0.56754,-3.14482 0.019,-5.46288 0.15614,-0.61705 0.35158,-1.70382 0.4343,-2.41504 0.25354,-2.17987 0.82889,-4.10984 1.6127,-5.40971 0.72226,-1.1978 2.6994,-2.22237 7.67736,-3.97845 2.69864,-0.95202 3.6755,-1.33738 4.59825,-1.81396 0.85877,-0.44353 1.09848,-0.64625 2.15395,-1.82155 0.64335,-0.71637 1.78646,-1.47507 4.47956,-2.9731 3.69557,-2.05566 5.88273,-3.45143 6.93511,-4.42575 2.10521,-1.94905 3.3197,-5.91909 3.76843,-12.31853 0.16612,-2.36903 0.23445,-12.39245 0.10032,-14.71749 -0.2737,-4.74496 -0.85136,-9.10687 -2.90437,-21.93099 -0.64954,-4.05737 -0.87964,-6.08262 -0.87964,-7.74227 0,-0.82205 -0.0669,-2.00885 -0.14866,-2.63731 -0.5871,-4.51244 -2.47308,-10.43052 -4.94626,-15.52098 -2.15316,-4.43178 -4.86149,-8.04111 -9.51883,-12.68552 -4.60154,-4.58875 -9.84721,-8.7587 -16.07995,-12.78246 -3.44639,-2.22493 -4.15675,-2.63883 -15.78256,-9.19578 -4.18045,-2.35776 -9.71403,-5.49502 -12.29685,-6.97169 -26.56285,-15.1867 -41.712,-25.14167 -47.54135,-31.24086 -3.70013,-3.87142 -7.57801,-10.05306 -12.56525,-20.02995 -2.27165,-4.54443 -3.09896,-6.27954 -6.55475,-13.74737 -4.48819,-9.69878 -5.89936,-12.6542 -7.56491,-15.84324 -1.31605,-2.51982 -1.9852,-3.67847 -3.09643,-5.36155 -3.22899,-4.89066 -6.67321,-7.49977 -11.2142,-8.49513 -0.86856,-0.19038 -1.2608,-0.21467 -3.4958,-0.21649 -2.67599,-0.002 -3.36792,0.07 -6.58414,0.68727 -6.24101,1.1977 -12.29181,2.93608 -21.01114,6.03645 -5.54931,1.97319 -8.79854,3.00539 -11.58667,3.6808 -2.59658,0.62902 -5.00685,0.9005 -6.13241,0.69073 -1.19899,-0.22347 -2.29641,-0.96637 -3.1967,-2.16402 -1.13746,-1.51317 -1.88804,-3.18053 -3.25539,-7.23169 -1.04696,-3.10189 -1.56407,-4.30521 -2.01218,-4.68226 -0.59533,-0.50093 -7.27085,-1.93619 -13.12782,-2.82253 -8.9406,-1.35297 -16.65134,-1.54726 -22.85084,-0.57575 -5.34895,0.83821 -16.54625,4.15986 -51.36595,15.23758 -35.21122,11.20227 -46.03285,14.38586 -51.67629,15.20253 -3.52032,0.50941 -11.16824,1.34467 -29.26987,3.19667 -13.88259,1.42036 -19.44441,2.10947 -20.02458,2.48109 -0.78575,0.5033 -3.13155,5.46555 -5.37156,11.36289 -5.88747,15.50014 -9.95214,32.02514 -11.00314,44.73341 -0.46817,5.66097 -0.61406,10.02111 -0.61229,18.30003 0.002,8.01059 0.13398,13.37262 0.56011,22.7056 0.62692,13.73034 2.03381,31.34039 3.00137,37.56831 0.53341,3.43334 1.173,5.40471 4.83344,14.89798 5.20634,13.50247 5.85,16.36779 4.18254,18.61863 -1.14499,1.54556 -2.8364,2.63947 -6.98579,4.51799 -6.34764,2.87374 -7.46361,3.73521 -8.308,6.41341 -1.12471,3.56736 -1.58831,9.45599 -1.48987,18.92432 0.0632,6.07502 0.15943,8.23949 0.52536,11.81272 0.35779,3.49372 0.37656,6.92024 0.0473,8.6438 -0.65386,3.4232 -2.55533,6.92131 -5.05555,9.30059 -1.08019,1.02794 -1.79545,1.4 -4.12466,2.14556 -2.80919,0.8992 -4.31594,1.6088 -7.15657,3.3704 -1.51319,0.93838 -2.73197,1.52839 -3.7762,1.82802 -0.62779,0.18013 -1.01317,0.22253 -2.03334,0.22371 -2.12587,0.002 -2.97429,-0.38373 -6.25155,-2.84556 -1.40091,-1.05234 -2.50922,-1.6659 -3.42714,-1.89723 -0.82923,-0.20899 -2.76399,-0.18636 -4.46331,0.0522 -1.63408,0.22942 -2.99454,0.50025 -7.23524,1.44039 -6.78506,1.50419 -8.89689,1.6142 -11.08082,0.57721 -1.18348,-0.56195 -2.07521,-1.7703 -2.2144,-3.00069 -0.0606,-0.53528 -0.0797,-0.56566 -0.5702,-0.90346 -1.29853,-0.89433 -2.45373,-2.31783 -2.67182,-3.29236 -0.17117,-0.76486 -0.0536,-1.27673 0.50539,-2.19979 0.87568,-1.4461 3.64508,-5.24781 7.02279,-9.64059 0.86939,-1.13064 1.57968,-2.08921 1.57845,-2.13016 -0.001,-0.0409 -0.68612,-0.40122 -1.52195,-0.80063 -1.76562,-0.84372 -3.39587,-1.75426 -4.09378,-2.28648 -0.92765,-0.70743 -1.22067,-1.76932 -1.13013,-4.0954 0.0797,-2.04829 0.43581,-3.48715 1.28427,-5.18944 0.91894,-1.84368 1.93484,-2.84177 4.83448,-4.74968 3.39063,-2.23099 7.06578,-4.25244 15.39526,-8.46787 2.44968,-1.23976 4.57967,-2.36748 4.73331,-2.50605 1.42315,-1.28365 3.77969,-7.15284 5.38838,-13.42023 1.39838,-5.44804 1.97966,-9.93057 1.74981,-13.49359 -0.33939,-5.26101 -2.32866,-21.41882 -4.90105,-39.80888 -0.18251,-1.30472 -0.68459,-4.89937 -1.11574,-7.98811 -0.43114,-3.08873 -1.28152,-9.1016 -1.8897,-13.36192 -0.97547,-6.83322 -1.43296,-10.00434 -3.04516,-21.10797 -0.34007,-2.3421 -0.68061,-4.65856 -2.17785,-14.81432 -0.23553,-1.59762 -0.62707,-4.23369 -0.87008,-5.85794 -0.24301,-1.62425 -0.68183,-4.56533 -0.97513,-6.53573 -2.16948,-14.57416 -3.26241,-21.55588 -4.25166,-27.15957 -1.03281,-5.85044 -1.40442,-8.02862 -1.78404,-10.45716 -0.5356,-3.42632 -0.57817,-3.73699 -0.72968,-5.3254 -0.15165,-1.58977 -0.35205,-2.21041 -1.27288,-3.94212 -2.94042,-5.52973 -9.76372,-14.24144 -18.97128,-24.22177 -4.48341,-4.85971 -7.03498,-8.05858 -10.1744,-12.75556 -5.67194,-8.48596 -10.156,-18.30817 -12.32779,-27.00368 -0.79758,-3.1934 -1.10963,-5.1758 -1.27202,-8.08097 -0.29377,-5.25552 -1.25452,-10.36519 -2.89051,-15.37297 -0.93549,-2.86356 -2.4723,-6.26134 -3.55916,-7.86913 -0.69533,-1.02858 -0.94987,-1.57046 -1.32586,-2.82251 -1.57498,-5.24466 -2.87457,-19.03089 -3.46708,-36.77914 l -0.11798,-3.53414 -0.35955,-0.43571 c -2.84715,-3.4502 -10.34967,-22.36817 -17.97085,-45.31436 -4.02616,-12.12216 -6.96824,-21.98697 -8.35996,-28.031 -0.60128,-2.61126 -0.99097,-3.79157 -1.79019,-5.42223 -1.88467,-3.84531 -5.13746,-7.51822 -9.68792,-10.93912 -4.20071,-3.15799 -10.141,-6.31353 -15.74175,-8.3622 -4.30461,-1.57454 -7.44585,-2.24617 -9.86189,-2.10855 -2.96461,0.16887 -5.07494,0.65561 -11.83365,2.72935 -8.75288,2.68562 -10.9565,3.08336 -18.49056,3.33743 -5.90435,0.19912 -11.73661,-0.16432 -18.28261,-1.13928 -1.88255,-0.28038 -6.12876,-0.21604 -11.03811,0.16725 -0.66568,0.052 -2.08175,0.1607 -3.14683,0.24164 -1.06508,0.0809 -2.45937,0.19098 -3.09842,0.24455 -6.31842,0.52969 -12.04139,0.50989 -13.59986,-0.0471 -1.83153,-0.65451 -2.87468,-2.31458 -3.19642,-5.08676 -0.27956,-2.40868 -0.39448,-2.79356 -0.90607,-3.03445 -0.5016,-0.23619 -3.80575,-1.37688 -5.80319,-2.00344 -2.46923,-0.77455 -4.00636,-1.19665 -5.60864,-1.54014 -0.72889,-0.15627 -1.44782,-0.36075 -1.59762,-0.45441 -0.92732,-0.57975 -1.97823,-1.77644 -2.86739,-3.26517 -1.07485,-1.79961 -3.43802,-6.42732 -4.37164,-8.56081 l -0.68925,-1.57506 -0.96492,-0.8317 c -2.8097,-2.42183 -5.71022,-5.3186 -6.8715,-6.86264 -0.97818,-1.30058 -1.10794,-1.9223 -0.67214,-3.22052 1.09332,-3.25695 5.04191,-6.90175 9.29475,-8.57966 1.18755,-0.46853 2.49913,-0.80658 3.98409,-1.02686 1.88334,-0.27938 9.19718,-2.47211 17.74834,-5.32104 12.07201,-4.02195 13.26215,-4.52791 17.28337,-7.34757 2.30945,-1.61938 5.8545,-4.46122 8.66588,-6.94689 2.46416,-2.17867 5.55532,-5.69605 7.31283,-8.32113 1.47511,-2.2033 1.90428,-3.4995 2.56305,-7.74117 0.63515,-4.08959 1.01253,-5.67076 1.73231,-7.25821 0.62422,-1.37668 1.6966,-2.68229 2.84381,-3.46229 1.19727,-0.81404 17.54411,-8.33879 27.63166,-12.71937 1.01894,-0.44248 2.63109,-1.17933 3.58255,-1.63744 0.95144,-0.45811 3.75598,-1.80798 6.23229,-2.99972 l 4.50239,-2.16679 0.0685,-1.35205 c 0.11353,-2.23997 0.57834,-5.010588 1.2058,-7.187528 0.22579,-0.78335 0.50063,-1.52628 2.86575,-7.74605 2.31692,-6.093 3.79785,-10.8098 4.67682,-14.89585 1.39117,-6.46703 1.34686,-8.1351 -0.6744,-25.38358 -1.01431,-8.65569 -1.18568,-13.38305 -0.58265,-16.07304 0.3095,-1.38062 1.00901,-2.321 1.84286,-2.47744 0.44807,-0.084 1.53331,0.19651 2.17525,0.56237 2.49609,1.42255 4.44049,5.73143 5.5614,12.3243 0.18469,1.0863 0.36455,2.34902 0.39968,2.80605 0.0351,0.45703 0.0925,0.84865 0.12747,0.87027 0.035,0.0216 0.14117,-0.25218 0.23599,-0.60843 0.0948,-0.35625 0.36931,-1.14881 0.60997,-1.76123 1.19221,-3.03385 2.38163,-4.37628 3.58796,-4.04954 0.82095,0.22235 1.60833,1.34554 3.11034,4.43684 3.26347,6.71662 9.56851,23.73895 12.69585,34.27625 1.45967,4.91821 2.15832,6.84172 3.59169,9.88846 3.30312,7.02109 7.71282,13.678878 16.50563,24.920328 1.59868,2.04389 2.46762,3.44979 3.14183,5.08334 0.71446,1.73105 1.1422,4.11853 1.01483,5.6643 -0.12311,1.49413 -0.58643,3.16338 -1.1657,4.19981 -0.13183,0.23586 -0.22816,0.4362 -0.21408,0.4452 0.0141,0.009 0.78813,0.45305 1.72007,0.98679 7.70091,4.41047 16.15867,10.95322 25.94676,20.07189 2.26504,2.11014 9.10446,8.92565 11.76047,11.71939 11.18494,11.76488 21.15062,23.50736 35.82805,42.21594 7.41955,9.45732 7.25566,9.26477 8.32643,9.78222 1.36356,0.65893 3.61333,1.14483 9.83765,2.12469 11.39865,1.79442 17.09418,2.81649 23.76512,4.26469 21.62713,4.69504 39.54334,10.71429 73.78107,24.78798 15.33995,6.30561 20.47964,8.29922 26.53281,10.29169 4.06273,1.33729 7.13503,2.16763 10.47765,2.83174 2.76405,0.54916 3.42234,0.617 16.87296,1.73866 23.8287,1.9871 54.43859,5.41686 73.44218,8.22902 1.22484,0.18125 2.70627,0.39943 3.29207,0.48485 13.72247,2.001 28.75972,4.76849 40.03737,7.3686 4.94078,1.13911 5.40445,1.25854 17.38018,4.47631 32.05614,8.61322 47.14978,12.28192 57.03025,13.86194 4.3102,0.68925 8.5627,0.95236 10.26351,0.63501 2.57326,-0.48013 5.74258,-2.01957 9.80311,-4.76165 2.23877,-1.51185 3.93077,-2.76984 8.29415,-6.16662 7.17976,-5.58926 9.45111,-7.12735 11.62819,-7.8742 0.6772,-0.23232 0.92678,-0.26643 1.98492,-0.27136 1.00785,-0.005 1.33123,0.0322 1.9331,0.22044 2.54227,0.79515 4.66992,2.74138 6.14105,5.61742 2.55143,4.98802 2.49511,11.38419 -0.15135,17.18613 -1.91979,4.20884 -4.85888,8.16173 -10.47496,14.08813 -3.04641,3.21474 -3.79012,4.0386 -4.33024,4.7969 -0.42522,0.59698 -0.47634,0.72335 -0.47634,1.17728 0,1.14148 0.96484,3.96295 6.32363,18.49214 4.20224,11.39345 6.52098,17.9405 8.3313,23.52381 3.26058,10.05608 4.05658,14.03669 4.05637,20.28495 0,4.35267 -0.19776,6.22011 -1.76742,16.70241 -1.28649,8.59126 -1.82738,14.5921 -1.9942,22.12464 -0.14483,6.53979 0.55881,12.25048 2.43835,19.78931 3.9079,15.67466 13.12512,35.24703 26.08751,55.39574 3.9301,6.10892 6.89596,10.09392 11.56175,15.53464 10.75975,12.54674 26.57565,27.59236 37.52795,35.70022 3.0335,2.24561 4.6214,3.28433 6.8239,4.46385 1.8854,1.00966 2.3734,1.35857 3.5416,2.53207 1.1512,1.15638 2.0199,2.3889 2.8408,4.03007 2.2064,4.41148 3.4006,10.20089 4.1738,20.23452 0.3457,4.48524 0.6629,7.04677 1.0793,8.7143 0.3991,1.5981 0.092,4.36264 -0.9451,8.52065 -0.9251,3.70751 -2.3359,8.11767 -5.1416,16.07304 -3.1397,8.90216 -4.3336,12.61392 -4.6407,14.42701 -0.1895,1.11912 -0.1621,5.20723 0.047,7.06827 0.8225,7.305 2.7729,16.28737 6.0758,27.98175 0.6993,2.47597 0.7654,2.7857 0.7652,3.58255 -10e-4,2.24583 -0.8546,5.25457 -3.6272,12.7818 -2.4338,6.60738 -2.8937,8.05353 -3.6427,11.45366 -0.6629,3.00948 -1.1706,5.00575 -1.5939,6.26742 -1.1847,3.53116 -3.5034,6.79967 -5.5615,7.8395 -0.5875,0.29682 -1.8241,0.67677 -2.7125,0.83343 -1.2044,0.21237 -3.8728,0.1542 -6.7778,-0.14775 -3.5352,-0.36743 -3.8929,-0.33362 -8.6175,0.81448 -3.4214,0.83143 -4.8415,1.11998 -6.4451,1.30961 -1.876,0.22182 -3.4168,0.25215 -4.7383,0.0932 z"
         id="path193"
         clip-path="url(#clipPath1931)" /><path
         style="fill:#000000;stroke-width:0.618696"
         d="m 776.7777,544.7439 c 5.45284,-0.5795 11.88782,-3.29073 13.01355,-5.48294 0.40927,-0.79697 1.67109,-2.42349 2.80407,-3.61447 1.13298,-1.191 2.75131,-3.69672 3.59629,-5.56828 2.75481,-6.10168 3.50814,-11.51282 3.83296,-27.53208 0.2399,-11.83035 0.56675,-16.13226 1.60789,-21.1629 1.69817,-8.2053 1.17886,-10.32031 -4.13845,-16.85465 -4.81314,-5.91479 -6.53417,-8.65312 -8.79886,-13.99988 -3.42257,-8.08034 -5.92273,-19.83536 -7.90318,-37.15849 -3.21902,-28.15648 -6.75619,-42.33153 -13.52239,-54.19034 -2.58864,-4.53703 -2.71184,-4.97367 -2.44376,-8.66176 0.34169,-4.70067 -0.81536,-7.23041 -4.6594,-10.18732 -3.00674,-2.31285 -7.02328,-3.13109 -10.20888,-2.07974 -1.94378,0.6415 -2.53338,0.52894 -5.76934,-1.1014 -8.20902,-4.13589 -19.38294,-6.52483 -33.92054,-7.25209 -7.7847,-0.38944 -15.73865,-0.0624 -45.78365,1.88292 -36.9126,2.38984 -56.1968,-0.0518 -74.98026,-9.49388 -15.47376,-7.7783 -20.60529,-11.33736 -63.2686,-43.88121 l -9.55967,-7.29216 -5.94306,-12.99173 c -3.26867,-7.14543 -7.18004,-15.18994 -8.69193,-17.87664 -3.24496,-5.76649 -6.82374,-9.81614 -8.40559,-9.5115 -1.62806,0.31353 -3.81124,3.91889 -4.28466,7.07575 l -0.41377,2.75922 -3.29249,-3.1139 c -4.17907,-3.95239 -6.07807,-4.15291 -7.51718,-0.79379 -0.75715,1.76732 -1.08131,5.38723 -1.3605,15.19297 l -0.36652,12.87286 -4.5153,1.51908 c -9.82249,3.30456 -18.69654,9.01266 -23.12023,14.8718 -2.81072,3.7228 -4.50838,8.52236 -5.15659,14.57863 -0.39352,3.67657 -0.60449,4.16674 -1.93726,4.50124 -0.82261,0.20647 -2.57006,1.34607 -3.88324,2.53244 -2.48223,2.24253 -3.7682,5.56071 -3.7682,9.723 0,1.14566 -0.59068,4.41887 -1.31264,7.2738 -2.98181,11.7915 1.71035,22.66208 12.01823,27.84318 3.35192,1.68479 4.37819,1.90781 8.1647,1.77436 4.14288,-0.14605 4.50035,-0.0419 8.23461,2.39748 5.81627,3.79951 14.53716,6.33866 21.77058,6.33866 3.45793,0 3.83957,0.15814 7.26633,3.00987 10.91295,9.08185 14.4435,15.39939 20.59493,36.85255 4.93227,17.20124 11.25142,29.04528 20.52851,38.4768 l 4.94127,5.02349 1.43553,7.65981 c 3.77854,20.16205 5.37385,34.95322 5.43053,50.34998 0.0609,16.55392 -1.35782,21.01271 -8.1548,25.62847 -5.83723,3.96398 -10.58786,10.16475 -10.58786,13.81983 0,0.79621 -0.34801,1.81656 -0.77337,2.26743 -0.5907,0.62615 -0.59892,0.88402 -0.0346,1.09176 0.40623,0.14954 0.61212,0.602 0.45753,1.00538 -0.19242,0.5021 0.8216,0.78105 3.21518,0.88446 1.92293,0.0831 3.82568,0.42449 4.22834,0.75867 0.41655,0.34568 0.97911,0.37576 1.30515,0.0696 0.3152,-0.29582 3.77482,-0.68021 7.68808,-0.85424 3.91328,-0.17398 8.13886,-0.62887 9.39017,-1.01084 3.38664,-1.03374 7.92718,-4.32099 10.3137,-7.46682 2.03139,-2.67775 2.24499,-2.7887 5.58886,-2.90355 14.33871,-0.4924 18.38934,-1.45182 22.77419,-5.39415 5.12639,-4.60909 8.33491,-12.44505 9.23558,-22.55556 0.3397,-3.81327 0.69708,-4.98086 1.8572,-6.06766 l 1.43656,-1.34577 -0.33824,-16.90583 c -0.18608,-9.2982 -0.10832,-18.99392 0.17271,-21.54605 l 0.51104,-4.64024 4.64025,-0.10963 c 15.55502,-0.36766 27.24047,-1.6405 50.11453,-5.45873 18.00817,-3.00601 28.15441,-4.49935 37.70965,-5.55021 l 8.32148,-0.91515 4.36183,4.18651 c 2.399,2.30256 8.19427,7.49059 12.87834,11.52891 4.68409,4.03834 9.91801,9.03821 11.63095,11.11085 7.83711,9.48288 11.5644,23.76717 9.1685,35.13691 -0.89241,4.23501 -1.99802,6.07655 -4.77124,7.94713 -6.06967,4.09414 -8.63726,7.49859 -10.06477,13.34526 -0.40581,1.66208 -1.01016,3.36998 -1.343,3.79535 -0.41364,0.52861 -0.3614,0.77336 0.16504,0.77336 0.5833,0 0.56415,0.25331 -0.0789,1.04389 -0.73847,0.90785 -0.71587,0.99401 0.17352,0.66118 0.56245,-0.21051 2.37215,0.0379 4.02154,0.55192 2.22437,0.69325 4.83649,0.86104 10.11392,0.64973 9.51686,-0.38109 12.75555,-1.61019 17.50573,-6.64345 7.29948,-7.73449 9.11634,-14.74037 9.13919,-35.24125 0.006,-5.95495 0.22766,-11.80166 0.49115,-12.99265 l 0.47906,-2.16545 2.30662,3.5716 c 4.99506,7.73448 7.47209,16.29828 7.4673,25.81657 -0.005,9.07607 -1.00906,13.15382 -3.87727,15.73979 -1.24714,1.12442 -3.70645,3.34962 -5.46513,4.94492 -3.48276,3.15921 -5.37134,6.53826 -6.07474,10.86888 -0.2487,1.53127 -0.88266,3.27137 -1.40877,3.86686 -0.68807,0.7788 -0.73741,1.08273 -0.17581,1.08273 0.4489,0 0.62536,0.40504 0.41512,0.9529 -0.21666,0.56459 -0.0545,0.90064 0.39783,0.82468 0.86119,-0.14462 5.44176,0.70384 6.22304,1.15272 0.87656,0.50362 6.09949,0.49413 10.93596,-0.0198 z M 571.00769,492.87558 c 0.3012,-15.60332 1.18324,-19.74908 1.91561,-9.00382 0.76596,11.23734 -0.19615,23.31462 -1.85731,23.31462 -0.184,0 -0.21025,-6.43985 -0.0584,-14.3108 z"
         id="path191"
         clip-path="url(#clipPath1927)"
         transform="translate(0,2)" /></g><g
       id="g1944"
       transform="matrix(1.5542505,0,0,1.5542505,-89.264108,-149.37638)"
       style="fill:#ffffff"><text
         xml:space="preserve"
         style="font-size:52.5704px;fill:#ffffff;stroke-width:1.09522"
         x="293.92432"
         y="362.73401"
         id="text323"><tspan
           sodipodi:role="line"
           id="tspan321"
           x="293.92432"
           y="362.73401"
           style="font-style:normal;font-variant:normal;font-weight:bold;font-stretch:normal;font-size:52.5704px;font-family:'Bangla Sangam MN';-inkscape-font-specification:'Bangla Sangam MN Bold';fill:#ffffff;stroke-width:1.09522">CriaderoPinto</tspan></text></g></g></svg>
